<svg xmlns="http://www.w3.org/2000/svg" viewBox="0 0 3000 3000" width="3000" height="3000"><g transform="translate(61.0 529.0) rotate(0.0 1429.0 1014.5) scale(1.0421019393013906 1.0421952978449311)"><svg width="2742.534" height="1946.852" viewBox="0 0 2742.534 1946.852"><linearGradient id="n" gradientUnits="userSpaceOnUse" x1="1470.248" x2="1297.97" y1="-185.17" y2="2033.204"><stop offset=".193" stop-color="#3edbe1"/><stop offset=".358" stop-color="#11a2c0"/><stop offset=".359" stop-color="#11a2c0"/><stop offset=".565" stop-color="#1f6e9b"/><stop offset=".666" stop-color="#245a8d"/><stop offset=".702" stop-color="#245688"/><stop offset=".884" stop-color="#224571"/><stop offset="1" stop-color="#213f69"/></linearGradient><linearGradient id="o" gradientUnits="userSpaceOnUse" x1="1750.105" x2="2291.104" y1="193.433" y2="383.395"><stop offset=".032" stop-color="#3edbe3"/><stop offset=".892" stop-color="#23c2d4"/></linearGradient><linearGradient id="p" gradientUnits="userSpaceOnUse" x1="2336.491" x2="2191.876" y1="533.58" y2="791.953"><stop offset=".168" stop-color="#18adc5"/><stop offset=".935" stop-color="#1495b8"/></linearGradient><linearGradient id="q" gradientUnits="userSpaceOnUse" x1="1635.118" x2="843.099" y1="12.904" y2="2095.676"><stop offset=".148" stop-color="#4ddce5"/><stop offset=".358" stop-color="#38aac5"/><stop offset=".373" stop-color="#36a4c1"/><stop offset=".508" stop-color="#28709d"/><stop offset=".574" stop-color="#235c8f"/><stop offset=".691" stop-color="#22507f"/><stop offset=".789" stop-color="#21436e"/></linearGradient><linearGradient id="r" gradientUnits="userSpaceOnUse" x1="308.767" x2="215.333" y1="751.757" y2="1313.645"><stop offset="0" stop-color="#166a98"/><stop offset=".859" stop-color="#1c5e8f"/><stop offset="1" stop-color="#1d5b8d"/></linearGradient><linearGradient id="s" gradientUnits="userSpaceOnUse" x1="2350.997" x2="2030.191" y1="1024.815" y2="2049.431"><stop offset="0" stop-color="#1c4876"/><stop offset=".592" stop-color="#1c3e6a"/><stop offset=".725" stop-color="#1c3b66"/><stop offset=".913" stop-color="#21436e"/></linearGradient><linearGradient id="t" gradientUnits="userSpaceOnUse" x1="726.101" x2="564.418" y1="1110.81" y2="1955.801"><stop offset="0" stop-color="#1c4875"/><stop offset=".742" stop-color="#1c3f69"/><stop offset="1" stop-color="#1c3b63"/></linearGradient><linearGradient id="a"><stop offset="0" stop-color="#131126"/><stop offset="1" stop-color="#131126"/></linearGradient><linearGradient xmlns:xlink="http://www.w3.org/1999/xlink" id="u" gradientUnits="userSpaceOnUse" x1="669.049" x2="339.175" xlink:href="#a" y1="1434.355" y2="2349.699"/><linearGradient id="v" gradientUnits="userSpaceOnUse" x1="415.756" x2="611.139" y1="1274.643" y2="1658.898"><stop offset=".397" stop-color="#162a47"/><stop offset="1" stop-color="#14182f"/></linearGradient><linearGradient id="w" gradientUnits="userSpaceOnUse" x1="314.719" x2="277.173" y1="1277.334" y2="1503.123"><stop offset="0" stop-color="#162a47"/><stop offset=".589" stop-color="#15213b"/><stop offset="1" stop-color="#14182f"/></linearGradient><linearGradient xmlns:xlink="http://www.w3.org/1999/xlink" id="x" gradientUnits="userSpaceOnUse" x1="2038.345" x2="2576.81" xlink:href="#a" y1="1304.278" y2="2021.639"/><linearGradient id="y" gradientUnits="userSpaceOnUse" x1="2410.638" x2="2519.035" y1="1134.118" y2="1205.553"><stop offset=".248" stop-color="#172645"/><stop offset=".611" stop-color="#142642"/></linearGradient><linearGradient id="z" gradientUnits="userSpaceOnUse" x1="2050.659" x2="2415.14" y1="1352.16" y2="1672.872"><stop offset=".248" stop-color="#162a47"/><stop offset=".611" stop-color="#14182f"/></linearGradient><linearGradient id="b"><stop offset=".148" stop-color="#5da066"/><stop offset="1" stop-color="#316d4a"/></linearGradient><linearGradient xmlns:xlink="http://www.w3.org/1999/xlink" id="A" gradientUnits="userSpaceOnUse" x1="2039.524" x2="2052.232" xlink:href="#b" y1="917.668" y2="1094.793"/><linearGradient id="c"><stop offset=".148" stop-color="#5da066"/><stop offset=".665" stop-color="#316d4a"/></linearGradient><linearGradient xmlns:xlink="http://www.w3.org/1999/xlink" id="B" gradientUnits="userSpaceOnUse" x1="1914.063" x2="2020.234" xlink:href="#c" y1="973.431" y2="1158.636"/><linearGradient id="d"><stop offset="0" stop-color="#5da066"/><stop offset=".657" stop-color="#224f31"/></linearGradient><linearGradient xmlns:xlink="http://www.w3.org/1999/xlink" id="C" gradientUnits="userSpaceOnUse" x1="2118.434" x2="1999.378" xlink:href="#d" y1="1051.863" y2="1296.566"/><linearGradient id="e"><stop offset=".257" stop-color="#296146"/><stop offset=".657" stop-color="#22472a"/></linearGradient><linearGradient xmlns:xlink="http://www.w3.org/1999/xlink" id="D" gradientUnits="userSpaceOnUse" x1="1918.907" x2="1987.763" xlink:href="#e" y1="1103.239" y2="1328.362"/><linearGradient id="f"><stop offset=".248" stop-color="#20472a"/><stop offset=".611" stop-color="#1b3a22"/></linearGradient><linearGradient xmlns:xlink="http://www.w3.org/1999/xlink" id="E" gradientUnits="userSpaceOnUse" x1="2108.601" x2="1999.147" xlink:href="#f" y1="1247.789" y2="1478.6"/><linearGradient id="g"><stop offset="0" stop-color="#1e4528"/><stop offset=".551" stop-color="#162f1c"/></linearGradient><linearGradient xmlns:xlink="http://www.w3.org/1999/xlink" id="F" gradientUnits="userSpaceOnUse" x1="1911.85" x2="2001.611" xlink:href="#g" y1="1358.889" y2="1600.426"/><linearGradient id="h"><stop offset=".127" stop-color="#17361f"/><stop offset=".641" stop-color="#142817"/></linearGradient><linearGradient xmlns:xlink="http://www.w3.org/1999/xlink" id="G" gradientUnits="userSpaceOnUse" x1="1841.859" x2="1981.698" xlink:href="#h" y1="1437.755" y2="1691.11"/><linearGradient id="i"><stop offset=".288" stop-color="#17361f"/><stop offset=".76" stop-color="#142817"/></linearGradient><linearGradient xmlns:xlink="http://www.w3.org/1999/xlink" id="H" gradientUnits="userSpaceOnUse" x1="2068.819" x2="2050.317" xlink:href="#i" y1="1351.272" y2="1627.251"/><linearGradient id="j"><stop offset=".288" stop-color="#142817"/><stop offset=".76" stop-color="#102114"/></linearGradient><linearGradient xmlns:xlink="http://www.w3.org/1999/xlink" id="I" gradientUnits="userSpaceOnUse" x1="2160.599" x2="1973.626" xlink:href="#j" y1="1563.65" y2="1711.207"/><linearGradient id="k"><stop offset=".288" stop-color="#112111"/><stop offset=".76" stop-color="#0d1f13"/></linearGradient><linearGradient xmlns:xlink="http://www.w3.org/1999/xlink" id="J" gradientUnits="userSpaceOnUse" x1="2239.25" x2="2118.552" xlink:href="#k" y1="1627.151" y2="1726.254"/><linearGradient id="K" gradientUnits="userSpaceOnUse" x1="1822.305" x2="2007.658" y1="1590.359" y2="1744.944"><stop offset=".288" stop-color="#122717"/><stop offset=".76" stop-color="#0e1f12"/></linearGradient><linearGradient xmlns:xlink="http://www.w3.org/1999/xlink" id="L" gradientUnits="userSpaceOnUse" x1="1776.586" x2="1872.637" xlink:href="#k" y1="1663.379" y2="1781.817"/><linearGradient xmlns:xlink="http://www.w3.org/1999/xlink" id="M" gradientUnits="userSpaceOnUse" x1="748.626" x2="761.334" xlink:href="#b" y1="1070.303" y2="1247.428"/><linearGradient xmlns:xlink="http://www.w3.org/1999/xlink" id="N" gradientUnits="userSpaceOnUse" x1="623.165" x2="729.335" xlink:href="#c" y1="1126.065" y2="1311.27"/><linearGradient xmlns:xlink="http://www.w3.org/1999/xlink" id="O" gradientUnits="userSpaceOnUse" x1="827.536" x2="708.48" xlink:href="#d" y1="1204.498" y2="1449.201"/><linearGradient xmlns:xlink="http://www.w3.org/1999/xlink" id="P" gradientUnits="userSpaceOnUse" x1="628.009" x2="696.865" xlink:href="#e" y1="1255.873" y2="1480.996"/><linearGradient xmlns:xlink="http://www.w3.org/1999/xlink" id="Q" gradientUnits="userSpaceOnUse" x1="817.703" x2="708.249" xlink:href="#f" y1="1400.423" y2="1631.234"/><linearGradient xmlns:xlink="http://www.w3.org/1999/xlink" id="R" gradientUnits="userSpaceOnUse" x1="620.952" x2="710.712" xlink:href="#g" y1="1511.523" y2="1753.061"/><linearGradient xmlns:xlink="http://www.w3.org/1999/xlink" id="S" gradientUnits="userSpaceOnUse" x1="550.961" x2="690.799" xlink:href="#h" y1="1590.389" y2="1843.744"/><linearGradient xmlns:xlink="http://www.w3.org/1999/xlink" id="T" gradientUnits="userSpaceOnUse" x1="777.921" x2="759.419" xlink:href="#i" y1="1503.906" y2="1779.885"/><linearGradient xmlns:xlink="http://www.w3.org/1999/xlink" id="U" gradientUnits="userSpaceOnUse" x1="869.7" x2="682.727" xlink:href="#j" y1="1716.285" y2="1863.842"/><linearGradient xmlns:xlink="http://www.w3.org/1999/xlink" id="V" gradientUnits="userSpaceOnUse" x1="511.64" x2="575.296" xlink:href="#h" y1="1708.187" y2="1783.682"/><linearGradient id="W" gradientUnits="userSpaceOnUse" x1="380.39" x2="393.099" y1="1280.909" y2="1458.034"><stop offset=".148" stop-color="#1e4a30"/><stop offset="1" stop-color="#1e4226"/></linearGradient><linearGradient id="X" gradientUnits="userSpaceOnUse" x1="254.929" x2="361.1" y1="1336.671" y2="1521.877"><stop offset=".148" stop-color="#1a3f27"/><stop offset=".665" stop-color="#18361e"/></linearGradient><linearGradient id="Y" gradientUnits="userSpaceOnUse" x1="459.301" x2="340.244" y1="1415.104" y2="1659.807"><stop offset="0" stop-color="#1a341f"/><stop offset=".657" stop-color="#142e19"/></linearGradient><linearGradient id="l"><stop offset=".257" stop-color="#18331e"/><stop offset=".657" stop-color="#122b18"/></linearGradient><linearGradient xmlns:xlink="http://www.w3.org/1999/xlink" id="Z" gradientUnits="userSpaceOnUse" x1="259.773" x2="328.629" xlink:href="#l" y1="1466.479" y2="1691.603"/><linearGradient xmlns:xlink="http://www.w3.org/1999/xlink" id="aa" gradientUnits="userSpaceOnUse" x1="506.775" x2="324.981" xlink:href="#l" y1="1603.967" y2="1795.42"/><linearGradient id="ab" gradientUnits="userSpaceOnUse" x1="1305.729" x2="1252.112" y1="-219.24" y2="1091.631"><stop offset=".267" stop-color="#c9ffff"/><stop offset=".501" stop-color="#75f5fd"/><stop offset=".612" stop-color="#6cebf8"/><stop offset=".673" stop-color="#68e6f5"/><stop offset=".699" stop-color="#66e4f4"/><stop offset=".772" stop-color="#62e0f2"/><stop offset="1" stop-color="#53cfe8"/></linearGradient><linearGradient id="m"><stop offset=".148" stop-color="#c9ffff"/><stop offset=".501" stop-color="#75f5fd"/><stop offset=".715" stop-color="#65e3f3"/><stop offset="1" stop-color="#53cfe8"/></linearGradient><linearGradient xmlns:xlink="http://www.w3.org/1999/xlink" id="ac" gradientUnits="userSpaceOnUse" x1="724.052" x2="722.3" xlink:href="#m" y1="124.502" y2="331.288"/><linearGradient id="ad" gradientUnits="userSpaceOnUse" x1="1360.242" x2="1302.085" y1="-213.151" y2="1203.077"><stop offset=".303" stop-color="#c9ffff"/><stop offset=".501" stop-color="#75f5fd"/><stop offset=".715" stop-color="#65e3f3"/><stop offset="1" stop-color="#53cfe8"/></linearGradient><linearGradient xmlns:xlink="http://www.w3.org/1999/xlink" id="ae" gradientUnits="userSpaceOnUse" x1="807.67" x2="804.882" xlink:href="#m" y1="299.086" y2="539.518"/><linearGradient xmlns:xlink="http://www.w3.org/1999/xlink" id="af" gradientUnits="userSpaceOnUse" x1="850.204" x2="851.637" xlink:href="#m" y1="362.963" y2="514.929"/><linearGradient xmlns:xlink="http://www.w3.org/1999/xlink" id="ag" gradientUnits="userSpaceOnUse" x1="1159.974" x2="1155.486" xlink:href="#m" y1="146.75" y2="581.74"/><linearGradient xmlns:xlink="http://www.w3.org/1999/xlink" id="ah" gradientUnits="userSpaceOnUse" x1="1279.821" x2="1277.796" xlink:href="#m" y1="147.664" y2="645.402"/><linearGradient xmlns:xlink="http://www.w3.org/1999/xlink" id="ai" gradientUnits="userSpaceOnUse" x1="1832.776" x2="1813.548" xlink:href="#m" y1="93.265" y2="829.017"/><linearGradient xmlns:xlink="http://www.w3.org/1999/xlink" id="aj" gradientUnits="userSpaceOnUse" x1="2049.177" x2="2069.514" xlink:href="#m" y1="361.755" y2="662.647"/><linearGradient xmlns:xlink="http://www.w3.org/1999/xlink" id="ak" gradientUnits="userSpaceOnUse" x1="2102.783" x2="2108.886" xlink:href="#m" y1="371.914" y2="579.469"/><linearGradient xmlns:xlink="http://www.w3.org/1999/xlink" id="al" gradientUnits="userSpaceOnUse" x1="1555.436" x2="1556.261" xlink:href="#m" y1="367.707" y2="565.602"/><linearGradient xmlns:xlink="http://www.w3.org/1999/xlink" id="am" gradientUnits="userSpaceOnUse" x1="1732.356" x2="1732.998" xlink:href="#m" y1="365.619" y2="543.645"/><linearGradient id="an" gradientUnits="userSpaceOnUse" x1="450.447" x2="2307.046" y1="761.885" y2="761.885"><stop offset=".032" stop-color="#1db2c9"/><stop offset=".077" stop-color="#129ebd"/><stop offset=".892" stop-color="#1a92b5"/></linearGradient><linearGradient id="ao" gradientUnits="userSpaceOnUse" x1="1.825" x2="2214.882" y1="942.493" y2="942.493"><stop offset="0" stop-color="#42b9d0"/><stop offset="1" stop-color="#64eeff"/></linearGradient><path d="M2742.096 1269.802c-18.503-351.569-586.063-387.067-586.063-387.067s48.781-80.873-40.849-164.397c50.376-20.019 84.156-46.18 94.552-78.234 57.09-176.027-286.541-403.101-695.115-540.595C1079.359-46.967 677.173-12.965 620.273 163.08c-122.041 74.152-104.488 175.161 75.268 292.732C255.84 540.399 1.653 701.883.005 886.257c-.977 109.354 137.431 232.255 324.845 285.98-139.343 103.152-225.277 206.055-225.676 324.969-.88 262.51 732.408 471.707 1464.21 409.313 731.803-62.394 1195.45-318.692 1178.712-636.717zM764.745 443.643c-159.91-78.685-236.218-178.97-151.025-244.685-3.902 76.331 52.143 162.492 151.757 244.566l-.732.119zm1931.894 904.452c-32.184-171.458-195.325-289.097-480.677-377.882 0 0 217.653 18.867 374.797 150.406 120.276 100.679 105.88 227.476 105.88 227.476z" fill="url(#n)"/><path d="M1718.697 143.493c368.658 126.967 492.112 358.895 558.912 303.41 27.545-22.879-8.587-94.141-56.764-135.292-190.336-162.579-553.525-185.813-502.148-168.118z" fill="url(#o)"/><path d="M2204.625 731.312c-26.795 18.057 123.627-35.352 144.907-114.671 12.551-46.781-13.121-97.348-46.374-97.347-80.599.004 30.968 124.749-98.533 212.018z" fill="url(#p)"/><path d="M752.759 1908.174c-534.945-55.547-616.168-308.855-703.112-263.764-44.954 23.314-17.282 128.895 74.016 187.693 304.29 195.968 696.749 83.096 629.096 76.071z" fill="#131126"/><path d="m1064.031 1908.892 852.763-1631.206-11.038-6.332-472.974 930.625 456.558-940.043c-73.773-40.918-149.145-76.859-221.346-105.366l-584.66 1400.517 524.931-1425.439c-73.424-30.77-145.406-55.278-216.873-74.785L915.174 1452.842 1351.976 46.907c-13.126-3.429-52.525-11.24-52.946-11.776l-307.893 983.548 277.191-989.551-20.358-3.648-498.978 1842.847z" fill="url(#q)"/><path d="m521.319 1210.709-96.095-265.246c-39.832 18.665-55.21 7.243-80.907-65.892-71.312 31.305-132.481-83.285-175.69-236.423C59.457 714.991.794 798.001.005 886.257c-.977 109.354 137.431 232.255 324.845 285.98-27.691 20.499-53.263 40.988-76.484 61.595 132.668 11.568 272.953-23.123 272.953-23.123z" fill="url(#r)"/><path d="M2696.639 1348.095c-29.81-158.808-171.983-271.441-419.535-357.745-.132.276-49.294 103.495-61.142 110.205-83.475 47.279-108.396 103.378-132.957 108.459-46.332 9.586-67.047-15.774-73.766-8.181-24.475 27.66-63.653 154.412-63.914 161.324-3.753 99.233-7.478 174.821-20.691 179.689-32.182 11.857-97.341-51.447-102.075-45.938-40.204 46.785-18.465 61.765-52.061 101.834-92.312 110.097-107.556 101.628-91.465 188.859 2.898 15.712-47.427 36.417-55.049 57.589 0 0 6.513 33.437 20.447 54.505 519.46-56.025 891.711-212.786 1034.15-418.837 15.101-41.002 21.777-84.912 18.058-131.763z" fill="url(#s)"/><path d="M203.711 1276.749c34.597-42.754 124.822-113.4 282.038-217.635 54.127 45.733 67.495 90.745 80.628 88.947l25.235-10.186c30.488 44.886 28.406 85.935 64.823 130.882 7.596 9.527 27.034-.188 50.058-15.733 0 0 40.949 132.146 162.056 218.53 66.905 263.386 195.483 437.338 195.483 437.338-183.628-91.522-516.915-355.985-860.321-632.143z" fill="url(#t)"/><path d="M1064.031 1908.892c-.011-.009-84.366-70.369-112.486-101.117-13.55-14.817-54.4-19.661-82.996-48.273-22.144-22.156-28.161-42.987-40.651-62.671-20.028-31.564-48.102-51.267-110.097-122.801-66.058-76.221-98.241-154.983-117.719-170.227-29.305-22.934-114.711-79.842-142.982-82.609-198.559-19.433-219.876-78.701-219.968-78.974-21.467 17.339-53.724 51.179-78.466 85.789-34.951 48.892-61.541 92.994-61.574 170.103-.091 211.743 434.322 371.083 966.939 410.78z" fill="url(#u)"/><path d="M311.287 1328.428c-.558-8.345 114.557 10.44 165.146 27.101 24.524 8.077 45.648 33.905 102.475 65.212 17.232 9.493 163.156 220.418 163.452 233.745.32 14.439-89.842-6.794-99.088-17.785-35.185-41.827-44.594-97.107-55.049-95.7 0 0-16.896 57.97-31.548 44.401-42.765-39.607-146.09-152.938-143.761-164.661 1.69-8.509 18.304-4.973 18.632-9.316.733-9.709-53.125-34.365-105.016-54.202-3.913-1.496-14.66-20.073-15.243-28.795z" fill="url(#v)"/><path d="M258.606 1293.317c0 11.919 14.75 46.756 93.869 102.687 14.431 10.202-3.725 20.363-8.159 39.981-2.662 11.777 38.38 87.914 39.492 101.147.984 11.715-163.276-132.524-192.782-163.818-8.417-8.927 8.273-58.764 17.785-83.843 2.283-6.018 49.795-7.713 49.795 3.846z" fill="url(#w)"/><path d="M2678.58 1479.863c14.609-28.787 23.241-96.276 18.059-131.768-14.276-97.32-87.027-196.794-204.313-260.084-.281.149-79.642 42.183-82.416 56.639-25.444 132.591-307.55 170.269-320.976 195.634-23.476 44.352-16.149 73.938-63.863 139.841-25.201 34.808-59.899 55.068-59.784 67.65.366 40.141-43.493 182.13-69.675 180.641-6.455-.367-76.611 143.353-95.539 149.83 438.015-68.371 750.729-213.544 878.507-398.383z" fill="url(#x)"/><path d="M2497.141 1102.305c-4.482-.484-55.202 35.208-64.575 45.201-10.926 11.648-29.099 50.036-37.9 65.743-3.816 6.81 39.886-7.14 78.762-7.622 4.882-.061 22.708-46.918 49.526-66.564 6.022-4.411-10.01-35.052-25.813-36.758z" fill="url(#y)"/><path d="M2427.599 1232.696c-157.931 67.775-249.809 91.117-290.533 106.513-14.696 5.556-31.615 53.506-18.437 50.327 60.376-14.569 93.957-2.285 103.269-6.906 21.449-10.643 86.273-59.198 90.619-60.13 4.762-1.022-24.429 39.789-29.439 43.031-34.532 22.349-57.972 45.916-138.562 44.201-23.342-.497-117.859 121.615-157.674 148.285-22.197 14.868-37.102 141.801-37.102 161.642s202.226-121.204 274.238-181.794c8.081-6.799-20.859-13.906-32.568-13.802-10.906.097 16.233-26.105 24.56-25.407 23.404 1.961 71.756-8.103 105.863-24.56 10.909-5.264 30.278-45.491 40.651-74.527 5.525-15.466-73.363 27.942-76.043 23.706-2.337-3.694 73.526-47.996 87.9-72.827 7.148-12.351 85.171-131.447 53.258-117.752z" fill="url(#z)"/><path d="M2064.762 915.858c-41.54 74.493-60.996 84.073-32.528 180.37 0 0 .648-20.524 19.784-55.885 33.252-61.445 12.744-124.485 12.744-124.485z" fill="url(#A)"/><path d="M1965.381 1018.861c-16.789 63.751-2.297 111.727 50.479 140.396 0 0 3.703-49.366-16.827-75.193-32.6-41.015-33.652-65.203-33.652-65.203z" fill="url(#B)"/><path d="M2087.373 1079.331s-20.652 55.212-48.902 93.334c-28.872 38.962-14.723 93.334-14.723 93.334 54.023-80.871 74.201-92.627 63.625-186.668z" fill="url(#C)"/><path d="M1922.263 1138.224s13.905 31.459 7.887 89.916c-5.521 53.634 57.315 104.114 57.315 104.114 8.94-132.509-.158-142.499-65.202-194.03z" fill="url(#D)"/><path d="M2129.965 1256.535s-15.775 91.561-57.877 126.551c-39.444 32.781-65.167 73.789-65.167 73.789-14.723-108.78 16.201-100.17 123.044-200.34z" fill="url(#E)"/><path d="M1869.681 1293.868c60.996 69.409 102.536 54.227 109.898 248.19 0 0-60.252-43.118-68.883-110.424-10.227-79.745-41.015-137.766-41.015-137.766z" fill="url(#F)"/><path d="M1851.277 1404.818s44.17 52.057 62.573 103.588c29.147 81.611 69.935 143.025 69.935 143.025-129.879-73.616-125.147-95.701-132.508-246.613z" fill="url(#G)"/><path d="M2117.345 1395.353s-22.225 44.509-79.926 99.381c-53.634 51.005-33.127 121.992-33.127 121.992 47.325-93.071 117.26-88.602 113.053-221.373z" fill="url(#H)"/><path d="M2011.128 1704.013s0-78.348 68.357-105.691c51.952-20.781 103.588-62.573 103.588-62.573-60.469 125.147-103.062 112.527-171.945 168.264z" fill="url(#I)"/><path d="M2103.674 1741.873c40.489-73.616 75.255-104.771 156.171-120.414 0 0-39.189 56.82-76.771 75.193-70.987 34.704-79.4 45.221-79.4 45.221z" fill="url(#J)"/><path d="M1766.619 1576.763c161.955-4.732 146.706 89.916 241.354 160.903 0 0-100.262-12.335-139.87-78.348-28.394-47.324-101.484-82.555-101.484-82.555z" fill="url(#K)"/><path d="M1732.966 1614.623c55.738 54.16 89.917 25.24 152.49 168.265 0 0-76.245-16.301-99.907-71.512-27.81-64.891-52.583-96.753-52.583-96.753z" fill="url(#L)"/><path d="M773.864 1068.492c-41.54 74.493-60.996 84.073-32.528 180.37 0 0 .648-20.524 19.784-55.885 33.251-61.445 12.744-124.485 12.744-124.485z" fill="url(#M)"/><path d="M674.483 1171.495c-16.789 63.751-2.297 111.727 50.479 140.396 0 0 3.703-49.366-16.827-75.193-32.6-41.015-33.652-65.203-33.652-65.203z" fill="url(#N)"/><path d="M796.475 1231.965s-20.652 55.212-48.902 93.334c-28.872 38.962-14.723 93.334-14.723 93.334 54.022-80.871 74.201-92.627 63.625-186.668z" fill="url(#O)"/><path d="M631.365 1290.858s13.905 31.459 7.887 89.916c-5.521 53.634 57.315 104.114 57.315 104.114 8.94-132.508-.159-142.499-65.202-194.03z" fill="url(#P)"/><path d="M839.067 1409.169s-15.775 91.561-57.877 126.551c-39.444 32.781-65.167 73.789-65.167 73.789-14.723-108.78 16.201-100.17 123.044-200.34z" fill="url(#Q)"/><path d="M578.782 1446.503c60.996 69.409 102.536 54.227 109.898 248.19 0 0-60.252-43.118-68.883-110.424-10.227-79.745-41.015-137.766-41.015-137.766z" fill="url(#R)"/><path d="M560.378 1557.452s44.17 52.057 62.573 103.588c29.147 81.611 69.935 143.025 69.935 143.025-129.878-73.616-125.146-95.701-132.508-246.613z" fill="url(#S)"/><path d="M826.447 1547.987s-22.225 44.509-79.926 99.381c-53.634 51.005-33.127 121.992-33.127 121.992 47.325-93.071 117.26-88.602 113.053-221.373z" fill="url(#T)"/><path d="M720.23 1856.648s0-78.348 68.357-105.691c51.952-20.781 103.588-62.573 103.588-62.573-60.47 125.146-103.062 112.526-171.945 168.264z" fill="url(#U)"/><path d="M578.142 1791.531s7.015-44.263-35.614-66.855c-32.398-17.17-62.706-46.177-62.706-46.177 28.671 77.023 57.887 74.344 98.32 113.032z" fill="url(#V)"/><path d="M405.629 1279.098c-41.54 74.493-60.996 84.073-32.528 180.37 0 0 .648-20.524 19.784-55.885 33.251-61.445 12.744-124.485 12.744-124.485z" fill="url(#W)"/><path d="M306.247 1382.101c-16.789 63.751-2.297 111.727 50.479 140.396 0 0 3.703-49.366-16.827-75.193-32.6-41.015-33.652-65.203-33.652-65.203z" fill="url(#X)"/><path d="M428.239 1442.571s-20.652 55.212-48.902 93.334c-28.872 38.962-14.723 93.334-14.723 93.334 54.023-80.87 74.202-92.626 63.625-186.668z" fill="url(#Y)"/><path d="M263.13 1501.464s13.905 31.459 7.887 89.916c-5.521 53.634 57.315 104.114 57.315 104.114 8.939-132.508-.159-142.499-65.202-194.03z" fill="url(#Z)"/><path d="M469.801 1620.318c-21.367 67.051-43.489 131.512-79.892 146.914l-46.596-20.182c1.721-18.881 22.272-55.385 126.488-126.732z" fill="url(#aa)"/><path d="M637.991 127.028c43.646 6.341 79.912 12.919 289.034 13.942-9.651 9.518-4.234 17.104 33.518 20.543 0 0-101.635 15.959-53.868 15.516 3.99-.037 148.778 10.971 150.097.702.841-6.546-62.711-21.624-62.711-21.624 137.178 12.856 215.381 22.078 189.213 24.868 0 0-145.698 12.974-110.284 15.137 95.863 5.857 282.784 49.568 270.305 48.655 0 0-47.62 11.167-48.655 20.543-2.316 20.994 243.697 45.651 246.518 36.761 1.37-4.318-57.305-20.543-57.305-20.543l98.391 5.406s-15.427 7.108-15.137 10.812c2.419 30.917 374.183 18.136 371.333-7.644-19.402-11.798-38.291-23.187-49.1-28.167-41.449 13.126-251.58-67.098-339.737-77.783 0 0 52.538-7.124 36.966-12.909-13.711-5.094-70.279-23.787-70.279-23.787 55.931 4.893 82.866-.432 115.083-5.535-369.065-178.637-885.886-194.208-993.382-14.893z" fill="url(#ab)"/><path d="M620.273 163.08c2-7.26 5.249-14.888 9.747-22.884 0 0 142.18 24.886 191.168 34.162 45.389 8.594-186.521-4.413-200.915-11.278z" fill="url(#ac)"/><path d="M629.597 278.981s76.651-15.593 101.313-11.625c115.44 18.572 108.978 9.408 108.978 9.408s-40.151-8.315-68.406-14.747c-13.519-3.078 267.416-9.048 283.903-7.042 26.943 3.277 113.704 8.23 120.215 11.104 11.971 5.284-98.844 16.919-98.844 16.919s5.207 14.584 189.11 12.764c34.749-.344 337.879 51.832 472.519 54.913 35.126.804 101.404-27.457 126.531-24.323 61.2 7.633 111.317-12.724 111.317-12.724 24.118 15.375 47.703 31.859 70.786 49.387 0 0-70.304-11.536-70.304-6.802 0 10.76-52.218 2.476-52.218 2.476s31.263 11.097 51.648 10.686c8.193-.165 56.405 27.26 51.917 27.26-74.289 0-224.499-38.598-246.043-35.274-76.904 11.863-226.535-.959-255.569-2.672.766 11.332-19.13 13.132-57.882 6.233 0 0 63.067 23.82 68.567 32.057 12.414 18.592-348.952-16.301-392.172-20.01-14.468-1.242-21.85-14.567-53.069-13.829-41.469.98-115.903 18.198-143.305 8.819-20.366-6.971-45.431-34.32-85.489-30.314-16.324 1.632-221.931-38.906-221.931-38.906-4.083-6.9-7.897-15.021-11.572-23.758z" fill="url(#ad)"/><path d="M686.526 367.182s48.054-1.27 94.869-4.649c37.58-2.712 51.548 15.135 144.882 26.748 7.054.878-39.405 7.613-138.037 9.479-12.481.236-86.65-14.764-86.65-14.764-5.382-4.609-10.296-10.508-15.064-16.814z" fill="url(#ae)"/><path d="M775.773 431.708c18.339-2.145 54.781-8.16 77.472-8.014 11.723.075 80.587 4.246 73.02 9.795-13.846 10.154-36.586 19.268-51.225 14.945-54.073-15.968-107.819-15.726-99.267-16.726z" fill="url(#af)"/><path d="M940.726 423.691c-3.882-.586-10.161-11.184 168.088-14.245 39.944-.686 54.176 17.072 90.829 22.262 22.341 3.164 52.483-2.471 94.391 2.672 19.025 2.334 70.877 16.692 80.143 22.262 7.477 4.494-136.123-11.96-298.393 8.347-36.204 4.53-49.413-28.376-135.058-41.298z" fill="url(#ag)"/><path d="M1168.476 514.523c-.133-3.569 53.195-9.112 95.281-9.795 60.275-.978 118.981 10.778 122.887 11.576 22.831 4.664-217.901 5.412-218.168-1.781z" fill="url(#ah)"/><path d="M1455.211 508.289c-23.007-1.121 258.088-32.157 277.831-19.591 0 0-19.271-8.485-6.233-19.591 30.787-26.225 366.708 3.551 382.017 16.919 18.832 16.445 74.561 15.843 74.561 15.843 1.431 1.803 4.441 7.075 6.49 10.862 0 0-271.727-8.063-345.524-11.567-17.638-.838 16.287 18.129 3.185 29.968-28.127 25.417-166.513-11.837-392.327-22.843z" fill="url(#ai)"/><path d="M1911.139 529.661c1.166-12.523 86.908 7.198 218.168-3.562 17.291-1.417 75.471 17.893 75.471 17.893 3.066 7.197 6.678 19.861 7.927 26.508.001 0-303.696-17.975-301.566-40.839z" fill="url(#aj)"/><path d="M2152.391 459.985s-52.549-4.656-108.57-2.453c-14.469.569 124.688 22.682 124.688 22.682-1.995-2.812-12.272-16.32-16.118-20.229z" fill="url(#ak)"/><path d="M1456.992 433.489c65.7 3.931 196.838 19.15 197.687 11.576.418-3.724-46.482-12.634-82.815-16.029-56.366-5.266-119.145 4.197-114.872 4.453z" fill="url(#al)"/><ellipse cx="1732.597" cy="432.355" fill="url(#am)" rx="35.174" ry="11.333"/><path d="M2101.406 825.563c25.971-11.375 54.887-36.396 47.185-32.537-10.51 5.266-66.999 23.954-71.633 30.72-82.929 23.148-74.59 37.004-74.59 37.004-53.107 18.568-77.551 31.888-76.064 38.776.255 1.18 1.121 2.962 2.978 3.799-26.305 9.214-48.866 8.958-59.874 20.913-11.958.153-24.934-4.006-36.501-2.13 6.135-4.97 11.624-10.734 13.522-13.37 8.323.498 20.62-.549 32.073-4.443 6.571-2.234 14.837-6.831 20.982-10.562 6.041-.029 19.299-1.475 35.129-12.052 14.667-9.801 24.981-19.412 34.101-26.372 4.835 10.003 77.503-27.751 75.819-34.941 0 0 9.791-2.346 23.742-9.433 16.169-8.213 53.657-36.682 48.179-35.49-111.296 32.415-75.498 44.533-75.498 44.533-32.35 5.759-56.839 18.325-64.359 23.538 5.76-4.187 33.184-24.245 32.855-25.631-44.014 13.98-61.653 21.208-70.582 26.406 20.979-17.219 25.407-27.571 25.407-27.571s10.888 1.366 35.962-14.924c8.748-5.684 50.146-29.603 48.4-32.942-11.429 5.706-91.344 27.686-88.287 43.206.276 1.401 1.245 2.394 1.955 2.982-27.118 12.365-52.771 19.229-68.351 30.023-10.784-.331-32.01.205-47.298 2.693 7.248-4.262 15.468-8.227 20.084-11.324 40.002-26.835 60.624-33.657 59.952-35.28-1.393-3.366-61.724 15.854-86.268 29.703-7.606 4.292-5.427 8.519-2.317 9.046 6.438 1.091 13.546-.035 17.854-1.227-14.296 4.645-59.217 12.852-71.386 25.381-2.159 2.223-1.751 6.506-1.775 6.857-5.913.166-14.085-.24-28.158-.344 17.638-2.903 69.163-34.131 62.495-32.724-20.14 4.248-54.465 8.498-70.939 19.424-6.078 4.031-6.76 10.681-2.262 13.287-4.582.022-9.655.382-15.287.194-26.182-1.69-24.18 13.33-2.769 14.234 7.152.302 16.842.786 31.358-2.749-39.248 14.784-58.559 1.237-75.924 7.319-5.099-3.736-41.876-7.283-61.522-8.734-7.244-.535-17.567-.37-15.996 5.958.712 2.869 16.064 13.592 68.618 8.48-2.143 4.525 11.074 11.223 41.46 6.482 24.73-3.858 45.041-17.031 45.765-19.093 8.019-2.009 22.635-8.947 26.465-10.311 5.835.084 19.077-3.171 37.296-11.999a254.503 254.503 0 0 0 5.625-2.817c.745 1.839 3.155 3.58 8.684 3.846 23.6 1.137 38.636-7.995 52.508-13.558-3.797 4.161-3.296 6.213-3.561 8.344 0 0-65.35 18.495-62.123 28.075 1.298 3.854 8.855 4.267 9.393 4.791-31.741 12.111-64.193 4.615-73.375 15.456-2.87 3.389-1.022 6.905-1.081 7.418-39.863-.109-60.111 2.287-60.749 7.188-.169 1.298 1.037 2.771 3.618 4.42-54.762 3.95-65.271 8.773-67.555 10.335-8.292 3.921-7.143 18.065 41.639 6.045 12.722-3.135 26.829-7.736 37.208-13.14 6.566.94 15.347 1.12 26.479-.119 11.406-1.27 23.613-5.504 33.568-9.913 6.844-.273 16.133-1.951 27.836-5.931 14.138-4.808 28.503-14.809 37.868-22.552 6.891-1.884 16.291-5.59 27.606-11.736 8.293-4.505 24.985-15.294 24.985-15.294 7.239 1.335 20.518.803 34.783-6.54 0 0-2.685 5.466 14.562 3.552 13.253-1.47 30.566-10.949 30.566-10.949s-5.106 3.976-3.931 6.814c-69.73 21.421-69.592 36.869-69.592 36.869s-65.127 4.916-61.926 14.897c.394 1.227 3.308 2.295 8.114 2.753-42.19 24.889-79.79 18.462-89.46 30.257-2.498 3.047-1.156 6.69-.348 7.714-35.762 8.169-62.421-1.377-72.875 8.356-2.065 1.922-1.768 6.52 2.624 8.457-11.189 1.95-21.376 2.52-30.223 2.778-8.682-2.465-22.334-5.985-48.767-13.98-7.678-2.322-16.024.543-16.697 4.647-35.167-1.479-86.468-4.253-78.161 12.476 0 0-33.221-5.959-39.291-6.204 14.483-6.024 26.547-11.447 25.561-11.497-4.06-.206-20.328 2.015-74.144-4.857 15.597-2.139 38.056-10.55 38.056-10.55 11.324 3.594 58.938 2.344 79.569-5.069 0 0-8.331 9.057 24.772 8.367 28.367-.591 64.726-12.663 56.126-12.04-11.736.851-71.096-3.452-77.988 1.028-85.487-10.278-83.146 5.703-83.146 5.703-56.192-3.124-83.902-.152-85.192 6.777-.221 1.187-.11 3.164 1.28 4.646-27.84-1.531-48.564-10.381-63.344-3.541-11.096-4.424-21.465-13.219-32.866-15.901 7.583-2.249 14.877-5.477 17.648-7.187 7.49 3.637 19.243 7.365 31.32 8.14 6.928.445 16.334-.645 23.448-1.745 5.587 2.28 18.382 6.005 37.081 2.278 17.325-3.453 30.56-8.393 41.667-11.34.597 11.084 82.259 3.956 83.484-3.328 0 0 9.943 1.571 25.559.351 18.098-1.413 85.132-11.968 79.616-12.958-115.251-12.547-108.325 10.881-108.325 10.881-32.084-7.031-59.543-4.773-68.499-2.829 6.935-1.668 39.999-9.725 40.23-11.131-46.028-3.89-65.101-3.947-75.351-2.556 26.018-7.895 34.106-15.765 34.106-15.765s12.363 8.724 42.164 5.812c14.737-1.44 60.82-3.265 60.5-7.014-12.754.907-101.309-20.101-104.485-4.599-.287 1.399.223 2.687.651 3.501-29.808 1.069-56.138-2.384-74.689 1.637-9.826-4.423-29.623-12.03-44.696-15.568 8.337-1.169 17.355-3.103 22.914-2.792 36.342 2.038 68.776-1.467 68.784-3.223.015-3.641-62.91-15.396-90.917-11.974-8.679 1.06-8.301 5.797-5.634 7.471 5.521 3.465 12.516 5.139 16.953 5.682-14.99-1.168-59.623-10.736-75.697-3.809-2.852 1.229-4.131 5.34-4.288 5.656-5.521-2.104-12.908-5.598-25.856-11.066 17.401 4.052 77.026-5.121 70.329-6.367-20.23-3.765-53.555-12.943-72.983-9.14-7.168 1.403-10.368 7.285-7.223 11.409-4.237-1.728-9.059-3.333-14.185-5.656-23.511-11.555-27.47 3.081-8.057 12.089 6.485 3.009 15.241 7.156 30.005 9.432-41.939-1.328-54.526-21.211-72.905-22.223-3.262-5.397-14.876-16.852-32.448-25.692-6.479-3.26-16.071-7.048-17.067-.604-.451 2.922 5.797 9.432 39.096 28.167-3.727 3.361 5.884 14.593 35.761 21.814 24.317 5.877 48.154 1.464 49.619-.164 8.178 1.206 24.349.377 28.412.58 5.353 2.305 18.833 4.353 39.06 3.155 2.057-.122 4.158-.276 6.281-.455-.023 1.983 1.528 4.511 6.528 6.867 21.343 10.059 38.75 7.365 53.703 7.522-5.113 2.394-5.443 4.48-6.511 6.347 0 0-67.464-7.864-68.189 2.215-.292 4.056 6.524 7.321 6.818 8.01-33.977-.931-61.032-20.243-73.696-13.735-3.958 2.034-3.612 5.987-3.864 6.439-36.75-15.318-56.364-20.834-58.848-16.551-.658 1.134-.114 2.955 1.631 5.464-52.07-17.257-63.634-16.814-66.346-16.243-9.168.456-13.575 13.958 36.095 21.479 12.954 1.961 27.753 3.097 39.42 2.068 5.697 3.375 13.732 6.894 24.486 9.999 11.018 3.181 23.921 3.93 34.814 3.658 6.422 2.36 15.644 4.356 27.985 5.148 14.907.957 32.031-2.797 43.667-6.374 7.088.89 17.197 1.056 30.015-.301 9.395-.995 28.971-4.588 28.971-4.588 6.165 3.996 18.628 8.574 34.632 7.238 0 0-4.591 4.023 12.068 8.84 12.8 3.701 32.443 1.556 32.443 1.556s-6.25 1.723-6.262 4.793c-72.638-6.834-78.481 7.486-78.481 7.486s-62.01-20.322-62.913-9.88c-.111 1.284 2.166 3.383 6.425 5.64-48.56 6.882-80.779-13.407-94.264-6.205-3.483 1.86-3.653 5.738-3.302 6.992-36.165-6.107-57.081-25.101-70.492-20.102-2.649.987-4.152 5.347-.847 8.812-11.081-2.47-20.703-5.832-28.969-8.972-7.061-5.591-18.3-14.054-39.608-31.528-5.691-4.668-13.61-5.505-16.563-2.863-17.838-12.552-42.167-29.867-47.866-29.893-65.582-55.418-72.495-40.796-72.495-40.796-45.123-33.396-69.876-46.097-74.796-41.021-.843.87-1.846 2.581-1.509 4.579-22.365-16.532-34.736-35.274-50.855-37.662-6.798-9.773-10.565-22.795-18.584-31.281 7.571 2.278 15.444 3.579 18.702 3.671 4.228 7.14 11.961 16.691 21.6 23.955 5.53 4.167 13.978 8.411 20.52 11.391 3.394 4.964 11.997 15.084 29.656 22.219 16.362 6.61 30.138 9.738 41.035 13.364-5.652 9.579 66.397 48.372 71.458 42.963 0 0 7.42 6.759 21.118 14.297 15.875 8.736 60.549 23.72 56.498 19.871a788.148 788.148 0 0 0-13.891-11.219c25.782 11.344 77.899 29.848 55.85 14.637-5.645-3.894-30.025-25.47-54.762-32.614-13.258-3.829-19.791-.608-19.274 4.221-54.482-39.143-47.207-12.36-47.207-12.36-22.853-23.448-47.002-36.608-55.548-39.893 6.708 2.407 38.748 13.798 39.72 12.751-36.222-28.466-52.094-38.964-61.413-43.419 26.075 7.665 37.185 5.527 37.185 5.527s4.934 9.74 32.517 21.3c7.695 3.225 36.761 17.135 49.032 20.893a22.106 22.106 0 0 0 1.819 2.079c9.627 9.722 85.034 57.509 62.424 33.915-4.745-4.951-24.281-30.995-47.072-42.974-13.694-7.197-20.903-4.02-19.614 2.128-20.56-15.104-67.805-52.741-77.406-43.182-1.015 1.011-1.304 2.365-1.399 3.279-25.448-15.44-45.488-32.749-63.188-39.556-5.74-9.075-18.027-26.273-28.633-37.485 7.6 3.592 16.004 7.175 20.655 10.224 28.213 18.497 51.023 31.635 60.593 34.236 3.521.957-45.367-46.56-70.618-59.048-7.825-3.87-10.138.291-8.843 3.149 2.681 5.917 7.585 11.147 10.984 14.032-11.852-9.188-43.761-41.63-61.007-44.655-3.059-.537-6.407 2.195-6.714 2.372-3.437-4.781-7.657-11.746-15.421-23.405 12.262 12.916 67.069 37.928 62.176 33.219-14.78-14.227-37.476-40.147-55.785-47.618-6.755-2.756-12.686.4-12.351 5.566-2.575-3.765-5.705-7.746-8.69-12.494-13.195-22.528-24.615-12.479-13.425 5.677 3.738 6.065 8.739 14.324 19.787 24.313-34.234-24.087-33.699-47.582-48.463-58.496.274-6.293-5.517-22.53-18.655-37.268-4.81-5.396-18.335-16.88-23.593-12.991-4.273 3.16-1.966 16.923 32.522 46.112-4.972.764-3.19 15.406 17.718 37.803 17.016 18.229 39.34 27.606 41.466 27.049 6.151 5.487 20.094 13.656 23.37 16.051 3.185 4.858 13.289 13.953 30.82 24.035a253.277 253.277 0 0 0 5.489 3.062c-1.119 1.642-1.228 4.603 1.634 9.31 12.216 20.091 28.226 27.379 40.607 35.703-5.591-.803-7.024.758-8.95 1.731 0 0-51.892-43.529-58.088-35.512-2.493 3.226 1.379 9.686 1.242 10.422-27.815-19.394-39.662-50.338-53.832-51.844-4.429-.471-6.334 3.019-6.794 3.258-22.146-32.923-35.441-48.274-39.888-46.059-1.177.586-1.735 2.405-1.671 5.454-33.845-42.935-43.733-48.901-46.311-49.91-7.898-4.643-19.062 4.214 18.183 37.707 9.713 8.734 21.423 17.791 31.723 23.325 2.878 5.938 7.626 13.278 14.871 21.762 7.422 8.692 17.766 16.387 27 22.129 4.046 5.489 10.628 12.208 20.479 19.63 11.9 8.966 28.26 15.215 39.948 18.605 5.417 4.627 13.753 10.304 25.195 16.195 8.386 4.317 26.703 12.044 26.703 12.044 2.924 6.714 10.776 17.363 24.863 25.017 0 0-6.06.843 5.159 13.991 8.62 10.103 26.19 19.074 26.19 19.074s-6.167-1.986-7.88.57c-56.777-45.504-69.594-36.751-69.594-36.751s-40.434-50.94-46.979-42.719c-.805 1.011-.07 4.01 2.228 8.228-44.309-20.861-59.92-55.451-75.159-56.828-3.936-.356-6.229 2.788-6.632 4.027-26.768-24.913-33.672-52.228-47.627-55.403-2.757-.627-6.428 2.189-5.595 6.892-7.869-8.133-14.028-16.212-19.178-23.361-2.786-8.536-1.076-20.944-15.537-48.02-6.145-11.505-20.242-18.691-14.472 1.817 1.398 4.969 6.207 14.157 11.75 23.642-1.642-1.115-3.281-1.782-4.98-1.898-1.568-.107-2.737.588-3.327 2.012-2.776-7.446-5.939-14.176-9.352-18.763-7.428-9.987-19.502-12.095-15.497.991 1.629 5.323 13.625 22.739 23.32 40.89-2.747-4.242-5.887-8.688-9.526-13.395-8.395-10.855-13.562-8.997-14.789-5.935-.315.788-.402 1.819-.307 3.042-13.192-24.598-29.879-51.826-37.779-52.789-3.29-.401-7.411 3.212-1.868 15.747 5.398 12.207 10.848 21.612 16.341 29.424-2.091-1.836-3.937-2.94-5.441-3.091-3.298-.331-8.083 3.741-1.527 15.783 20.44 37.544 39.146 50.26 59.296 74.568 4.898 5.909-38.556-70.424-38.556-70.424 9.884 12.423 15.771 19.274 27.555 29.559 0 0 36.996 53.586 36.422 51.576-.373-1.306-.901-9.721-16.941-49.592.096-9.016-1.922-18.91-5.617-29.501-1.96-5.616 7.726 10.931 13.967 17.618 8.752 9.376 21.121 17.337 31.361 22.783 3.179 5.344 7.87 11.651 14.489 18.742 9.859 10.562 24.307 19.327 35.132 24.726 3.17 6.158 10.519 14.911 23.842 24.95 4.928 3.713 10.621 6.96 16.432 9.732-.569 2.082.047 4.987 2.264 9.224 5.501 10.512 20.141 25.144 30.531 31.965-40.163-20.796-57.241-54.072-69.075-52.739-2.8.316-4.668 3.099-3.055 7.556-34.912-20.458-49.383-50.433-63.662-48.535-6.646.884-3.802 14.358 22.7 34.327 13.26 9.991 32.058 16.608 43.756 19.654 3.775 5.89 10.798 13.543 22.209 22.141 17.201 12.961 43.715 20.245 51.958 21.415.518 4.996 9.324 16.144 21.422 23.254 14.711 8.647 32.221 12.523 32.221 12.523.828 5.795 3.143 15.328 46.308 48.631-3.968-3.062-9.653 2.105-5.81 6.759 0 0-56.957-57.23-69.167-53.18-3.638 1.207-4.505 4.439.559 12.289-29.829-19.781-38.368-43.158-57.495-44.696-1.693-.136-2.768.721-3.005 2.397-25.513-18.854-40.496-43.035-52.063-40.881-6.591 1.228-3.802 14.357 22.7 34.327 9.65 7.271 22.232 12.752 32.88 16.375 3.779 5.886 10.797 13.526 22.188 22.11 12.557 9.462 30.079 15.896 41.836 19.14 3.823 4.043 8.784 8.509 15.1 13.268.517.39 1.051.768 1.584 1.148-1.218 1.355-1.148 4.582 3.584 10.405 12.665 15.586 22.991 22.961 33.11 29.307-2.262-.853-4.856-1.603-6.592-.267-.407.313-1.948 1.874-1.761 3.689-33.368-19.15-48.81-47.25-57.421-44.047-6.281 2.336-3.598 14.092 22.7 34.327 12.874 9.906 35.108 11.42 35.108 11.42 3.637 8.906 24.507 15.879 50.634 21.432 8.839 9.408 31.683 17.357 62.815 28.463-1.139 2.444.199 6.811 8.922 12.395 11.278 7.221 21.045 12.077 29.963 15.582-2.764-.385-4.917-.295-6.257.404-2.937 1.531-4.672 7.548 7.481 13.997 37.89 20.106 60.559 20.461 90.864 29.689 7.367 2.243-71.252-37.598-71.252-37.598 15.142 4.944 23.857 7.43 39.399 9.55 0 0 60.609 24.412 59.015 23.05-1.036-.885-6.145-7.613-41.653-32.07-4.921-7.571-12.094-14.715-21.054-21.521-4.751-3.609 12.513 4.882 21.432 7.038 12.507 3.023 27.249 2.884 38.818 1.815 5.617 2.714 13.032 5.403 22.491 7.689 14.089 3.405 31.012 2.798 43.043 1.368 6.062 3.398 17.053 6.67 33.743 7.741 6.173.396 12.727-.016 19.115-.888.68 2.048 2.806 4.133 7.007 6.451 10.423 5.751 30.761 9.931 43.218 9.925-45.062 4.665-77.779-13.724-86.917-6.13-2.163 1.798-2.178 5.142 1.642 7.975-40.492 2.069-69.199-14.996-80.066-5.59-5.058 4.378 4.791 14.055 37.991 16.186 16.612 1.066 35.974-3.716 47.428-7.585 6.418 2.843 16.526 5.376 30.822 6.294 21.548 1.383 47.722-7.071 55.252-10.611 3.204 3.882 16.739 8.353 30.782 7.653 17.077-.85 33.844-7.212 33.844-7.212 3.906 4.378 11.127 11.059 65.634 15.178-5.011-.379-6.89 7.044-1.1 8.819 0 0-79.293-16.514-87.238-6.447-2.368 3-1.298 6.169 7.284 9.941-35.873-.15-55.969-14.965-72.79-5.767-1.488.814-1.911 2.118-1.179 3.645-31.756-1.742-57.678-13.696-66.138-5.562-4.821 4.635 4.791 14.055 37.991 16.185 12.09.776 25.633-1.548 36.53-4.361 6.42 2.837 16.517 5.363 30.787 6.279 15.731 1.009 33.927-3.226 45.541-6.963 5.434 1.276 12.052 2.282 19.965 2.79.648.042 1.303.065 1.959.089-.265 1.797 1.584 4.449 8.764 6.712 19.218 6.058 31.929 6.549 43.896 6.296-2.362.528-4.942 1.324-5.651 3.389-.166.484-.586 2.63.577 4.041-38.478 2.315-66.956-12.655-72.367-5.267-3.947 5.39 4.814 13.722 37.991 16.186 16.242 1.206 35.642-9.713 35.642-9.713 7.976 5.434 29.266-.187 54.156-9.872 14.658 3.493 44.032-5.047 84.67-14.628a.024.024 0 0 0 .017-.02c.096-.929-81.982-1.12-92.076 1.662-7.681 2.117-7.595 4.776-7.451 6.168.293 2.83 5.354 5.169 12.37 6.361-9.531-.229-18.418-.462-26.445-.145-10.094-3.233-35.334-9.895-53.518-12.665 10.039-1.633 22.4-4.437 28.89-6.689 6.911 1.544 14.549 2.969 30.749 2.034 11.161-.643 26.816-2.748 37.242-4.966 15.227 4.969 53.2-6.469 76.772-11.767 1.226 1.9 4.155 3.877 9.473 5.624 4.929 1.619 15.287 2.781 26.303 3.503-1.849.732-3.322 1.711-4.369 3.047-.966 1.233-1.04 2.584-.181 3.865-7.767-1.865-15.153-3.012-20.891-2.758-12.49.553-21.001 9.33-7.839 13.328 5.354 1.626 26.598 1.453 47.169 3.586-5.077-.102-10.543.006-16.507.381-13.755.865-15.093 6.161-13.223 8.88.481.699 1.293 1.347 2.367 1.95-27.907-2.847-59.965-4.28-65.187 1.696-2.175 2.489-1.464 7.901 12.099 10.324 13.207 2.359 24.105 3.113 33.697 2.943-2.702.7-4.656 1.605-5.623 2.761-2.12 2.535-1.397 8.75 12.32 10.063 42.766 4.094 63.84-4.233 95.397-7.284 7.671-.742-80.34-7.502-80.34-7.502 15.896-1.218 24.906-2.25 40.081-6.226 0 0 65.414-.605 63.415-1.254-1.299-.421-8.618-4.681-50.865-13.699-7.472-5.109-16.858-8.965-27.764-11.826-5.783-1.517 13.444-.271 22.515-1.686 12.719-1.985 26.281-7.74 36.554-13.144 6.237.361 14.125.012 23.745-1.489 14.329-2.235 29.724-9.257 40.284-15.169 6.912.822 18.328-.353 34.157-5.736 5.855-1.991 11.749-4.873 17.311-8.117 1.42 1.631 4.189 2.743 8.965 3.279 11.85 1.329 32.25-2.577 43.753-7.338-39.817 21.508-77.141 17.024-82.646 27.522-1.302 2.484-.024 5.577 4.599 6.733-36.599 17.368-69.709 12.575-76.11 25.405-2.979 5.972 9.857 11.143 41.345.436 15.754-5.358 31.789-17.162 40.873-25.106 7.027.174 17.341-1.346 30.899-5.957 20.437-6.95 41.343-24.744 46.929-30.885 4.46 2.36 18.688 1.32 31.388-4.687 15.443-7.304 28.47-19.576 28.47-19.576 5.301 2.55 14.552 5.96 66.486-11.046-4.774 1.563-3.641 9.131 2.392 8.56 0 0-79.618 15.028-83.065 27.352-1.027 3.672 1.185 6.19 10.569 6.395-33.191 13.556-57.477 7.553-69.458 22.464-1.06 1.319-.946 2.684.32 3.814-30.003 10.515-58.565 9.377-63.235 20.114-2.661 6.118 9.857 11.143 41.345.436 11.466-3.899 23.076-11.214 32.054-17.97 7.026.168 17.328-1.355 30.862-5.958 14.919-5.073 30.088-15.928 39.37-23.812 5.512-.897 12.013-2.495 19.518-5.047.614-.209 1.229-.438 1.844-.666.449 1.76 3.182 3.502 10.689 2.85 20.091-1.745 32.021-6.144 42.976-10.946-1.977 1.389-4.053 3.109-3.909 5.285.034.51.475 2.651 2.095 3.51-34.643 16.825-66.732 13.879-68.874 22.765-1.562 6.481 9.75 10.827 41.344.436 15.467-5.087 29.165-22.571 29.165-22.571 9.467 1.97 26.958-11.345 46.204-29.785 14.888-2.372 38.717-21.467 72.547-45.823a.026.026 0 0 0 .009-.025c-.271-.895-76.151 30.262-84.399 36.683-6.276 4.886-5.169 7.307-4.498 8.537 1.365 2.5 6.943 2.727 13.884 1.149-8.892 3.427-17.189 6.605-24.48 9.962-10.573.87-36.459 4.355-54.325 8.741 8.641-5.34 18.974-12.646 24.098-17.202 6.979-1.213 14.585-2.814 29.186-9.86 10.06-4.855 23.706-12.773 32.478-18.801 18.801-1.442 57.901-35.858 75.633-46.284.135-.08.248-.234.189-.212-31.623 12.016-94.296 31.72-78.463 45.461 0 0-32.986 7.182-38.687 9.272 11.048-11.089 20.095-20.699 19.165-20.369-3.83 1.359-17.996 9.62-70.357 23.821 13.579-7.929 31.071-24.265 31.071-24.265 11.848-1.006 55.342-20.336 71.531-35.053.006.006-4.188 11.546 26.12-1.728zM1059.68 908.654c-13.03-4.452-16.312-.071-15.637 3.154.174.83.673 1.738 1.431 2.705-22.073-11.891-47.642-23.995-57.875-23.874-19.699-13.296-59.086-38.661-66.462-41.037-7.579-2.441-8.983-.175-9.635 1.066-1.325 2.523 1.597 7.248 6.786 12.087-7.821-5.414-15.102-10.477-21.971-14.61-6.624-8.229-23.974-27.62-37.6-39.896 9.277 4.137 21.14 8.57 27.8 10.246 4.906 5.075 10.485 10.449 24.511 18.546 9.664 5.578 23.885 12.399 33.809 16.26 11.691 14.692 62.228 27.679 80.822 36.467.142.067.333.073.283.038-27.67-19.349-79.078-59.996-81.714-39.26 0 0-24.395-23.176-29.321-26.707 15.418 2.907 28.486 4.99 27.691 4.408-3.271-2.397-18.068-9.456-59.13-44.678 14.193 6.76 37.585 12.045 37.585 12.045 7.449 9.205 47.845 34.25 69.16 39.366 0 0-11.971 2.996 16.015 20.558 11.571 7.261 26.176 13.31 37.349 17.156.993 1.19 2.266 2.478 3.886 3.873 3.923 3.377 13.035 8.404 22.923 13.276-1.989-.03-3.727.312-5.21 1.146-1.369.77-1.958 1.99-1.662 3.5-6.448-4.687-12.822-8.566-18.215-10.522-11.741-4.257-22.989.6-12.386 9.317 4.312 3.546 23.988 11.495 42.149 21.319-4.645-2.032-9.733-4.019-15.382-5.949z" fill="url(#an)"/><path d="M2212.706 570.5s-47.362 38.871-62.85 15.435c-19.682-29.782-31.457-42.681-59.08-39.05-179.648 23.615-105.725 308.419-261.318 352.179-84.466 23.756-153.755-43.553-209.594 1.307-67.916 54.562 22.953 203.366-57.663 272.294-57.411 49.087-89.086 10.153-160.254 38.145s-91.686 92.935-139.338 101.347c-99.25 17.521-115.057-113.575-171.121-160.239-64.85-53.977-30.309-143.079-117.495-132.454-84.783 10.332 39.503 106.707 2.821 122.554-14.01 6.053-199.679 49.343-227.279-328.534-10.157-139.055-115.305-78.611-133.831-96.107-36.161-34.152-89.296-44.671-192.802-3.35 0 0-58.696-9.239-98.37 5.435-72.56 26.838-100.661 79.143-156.523 85.87-55.997 6.744-121.344-51-121.344-51-19.246 25.715-40.889 67.306-44.84 106.698 0 0 149.556 128.023 288.468-76.893 52.517-77.471 126.559-51.087 177.175-51.087 41.848 0 79.892-13.587 105.979-8.696 44.497 8.343 40.917 30.076 92.392 79.348 69.259 66.296 28.62 184.859 103.239 282.443 57.707 75.466 174.325 107.917 233.413 101.372 38.617-4.277 45.502-14.427 66.818-11.506 35.387 4.849 70.56 99.193 97.244 123.209 27.562 24.806 66.439 48.537 115.853 36.034 54.771-13.858 75.37-103.055 137.258-122.08 68.967-21.202 108.808 66.788 162.994 45.533 119.44-46.852 76.622-238.552 120.76-268.356 40.253-27.181 111.726 31.788 184.11 0 83.146-36.515 64.01-411.234 194.668-424.532 26.598-2.707 31.675 42.893 61.324 49.257 30.466 6.539 71.362-32.355 71.362-32.355-.72-4.647-1.444-8.914-2.176-12.221zm-1137.643 597.041c-17.88-6.096-27.804.318-59.253 7.987-81.016 19.758-174.564-29.452-215.39-70.98-49.375-50.224-66.978-115.706-73.766-171.586-7.162-58.964-15.486-103.356-68.979-149.391-27.928-24.034-30.757-58.612-81.348-69.939-37.178-8.324-111.535 19.394-141.843 4.256 69.056-22.298 129.529-40.132 178.997.432 25.751 21.116 128.119-45.372 133.201 114.615 8.475 266.831 125.011 307.962 170.348 317.387 16.099 3.347 69.3 7.616 77.693-12.191 12.257-28.927-80.933-108.333-12.112-113.68 11.077-.86 20.88.458 29.445 5.02 15.18 8.086 22.466 21.913 27.962 38.669 12.757 38.896 19.834 59.504 52.143 89.131 21.953 20.131 34.074 63.282 34.074 63.282-10.144-21.617-27.745-45.025-51.172-53.012z" fill="url(#ao)" opacity=".34"/></svg></g><g transform="translate(853.0 689.0) rotate(0.0 550.0 739.5) scale(1.0397486454910827 1.040375576286471)"><svg width="1057.948" height="1421.602" viewBox="0 0 1057.948 1421.602"><linearGradient id="aq" gradientUnits="userSpaceOnUse" x1="0" x2="240.239" y1="210.078" y2="210.078"><stop offset=".102" stop-color="#61ffff"/><stop offset=".204" stop-color="#5feffc"/><stop offset=".329" stop-color="#5dd6f6"/><stop offset=".46" stop-color="#59aecd"/><stop offset=".595" stop-color="#54809f"/></linearGradient><linearGradient id="ar" gradientUnits="userSpaceOnUse" x1="164.458" x2="454.343" y1="-36.175" y2="281.41"><stop offset=".102" stop-color="#61ffff"/><stop offset=".204" stop-color="#5feffc"/><stop offset=".329" stop-color="#5dd6f6"/><stop offset=".408" stop-color="#5ab8d8"/><stop offset=".529" stop-color="#5690af"/><stop offset=".592" stop-color="#54809f"/></linearGradient><linearGradient id="as" gradientUnits="userSpaceOnUse" x1="316.97" x2="495.726" y1="610.997" y2="852.805"><stop offset="0" stop-color="#0b3f6a"/><stop offset=".729" stop-color="#0e2a53"/></linearGradient><linearGradient id="at" gradientUnits="userSpaceOnUse" x1="839.419" x2="895.486" y1="1060.606" y2="1023.307"><stop offset="0" stop-color="#3f4444"/><stop offset="1" stop-color="#0f1d44"/></linearGradient><linearGradient id="au" gradientUnits="userSpaceOnUse" x1="817.132" x2="841.607" y1="933.564" y2="1036.969"><stop offset=".458" stop-color="#61ffff"/><stop offset=".638" stop-color="#63effa"/><stop offset=".835" stop-color="#67d9f2"/></linearGradient><linearGradient id="ap"><stop offset="0" stop-color="#65e7f7"/><stop offset=".505" stop-color="#61ffff"/></linearGradient><linearGradient xmlns:xlink="http://www.w3.org/1999/xlink" id="av" gradientUnits="userSpaceOnUse" x1="802.452" x2="851.138" xlink:href="#ap" y1="999.658" y2="999.658"/><linearGradient xmlns:xlink="http://www.w3.org/1999/xlink" id="aw" gradientUnits="userSpaceOnUse" x1="827.573" x2="858.663" xlink:href="#ap" y1="1010.129" y2="1000.029"/><linearGradient id="ax" gradientUnits="userSpaceOnUse" x1="570.769" x2="639.903" y1="541.673" y2="1087.814"><stop offset=".102" stop-color="#7cffff"/><stop offset=".729" stop-color="#a0b5b7"/></linearGradient><linearGradient id="ay" gradientUnits="userSpaceOnUse" x1="483.485" x2="708.472" y1="553.683" y2="1041.381"><stop offset="0" stop-color="#7cffff"/><stop offset=".729" stop-color="#7b959d"/></linearGradient><linearGradient id="az" gradientUnits="userSpaceOnUse" x1="494.826" x2="700.173" y1="558.676" y2="999.583"><stop offset=".058" stop-color="#7cffff"/><stop offset=".729" stop-color="#cddbdb"/></linearGradient><linearGradient id="aA" gradientUnits="userSpaceOnUse" x1="667.776" x2="612.254" y1="678.422" y2="1007.96"><stop offset=".249" stop-color="#7cffff"/><stop offset=".563" stop-color="#3f4a4a"/></linearGradient><linearGradient id="aB" gradientUnits="userSpaceOnUse" x1="615.512" x2="516.501" y1="582.976" y2="963.654"><stop offset=".265" stop-color="#7cffff"/><stop offset=".3" stop-color="#7af9f9"/><stop offset=".346" stop-color="#75e9e9"/><stop offset=".397" stop-color="#6ccfcf"/><stop offset=".452" stop-color="#5faaaa"/><stop offset=".51" stop-color="#507b7b"/><stop offset=".563" stop-color="#3f4a4a"/></linearGradient><path d="M285.124 567.293c7.237 74.804 89.725 130.209 89.725 130.209l52.41-65.963s-69.421-49.28-72.618-69.208c-3.37-21.003-71.723-17.836-69.517 4.962z" fill="#ff7265"/><path d="M261.513 404.973s20.496 185.965 35.489 198.883c18.436 15.885 58.132-21.87 57.638-41.526-1.463-58.249-60.02-165.558-60.02-165.558-10.625-4.297-21.748-.064-33.107 8.201z" fill="#ff7265"/><path d="M248.089 286.985c-2.561-.993-5.186-2.337-7.854-3.957l.004.003c-26.064 8.114-63.64.51-101.137-13.449 40.252 26.805 73.271 49.319 83.305 70.477 19.801 41.756 42.382 81.268 42.382 81.268 6.916-9.668 27.457-20.014 37.603-10.809 0 0-5.189-17.655-4.354-42.132.72-21.101 9.908-40.517 2.283-52.894-8.885-14.421-16.137-14.506-52.232-28.507z" fill="#384f51"/><path d="M131.129 133.8C79.514 177.63 45.379 178.147 0 160.589c40.966 44.284 94.479 79.276 139.102 108.992 37.497 13.959 75.073 21.564 101.137 13.449-47.207-28.641-109.11-149.23-109.11-149.23z" fill="url(#aq)"/><path d="M347.174 642.604c13.945-19.32 28.74-30.742 54.464-32.899 0 0 221.097 149.671 196.709 220.079-10.056 29.031-40.047 51.655-70.553 45.955-102.762-19.2-180.62-233.135-180.62-233.135z" fill="#0f1d44"/><path d="M226.527 519.203c-26.124 34.46 51.142 146.475 51.142 146.475l65.035-45.269s-51.664-72.163-50.618-91.108c1.172-21.239-51.723-28.35-65.559-10.098z" fill="#ffc1a4"/><path d="M295.244 351.92s-80.095 169.079-74.106 187.942c7.364 23.195 61.051 11.36 69.903-6.196 18.924-37.533 36.692-171.362 36.692-171.362-6.793-9.232-18.483-11.463-32.489-10.384z" fill="#ffc1a4"/><path d="M346.297 237.743c-1.659-2.189-3.189-4.71-4.612-7.489l.002.005c-26.447-6.763-54.45-32.948-79.052-64.5 20.21 43.935 36.513 80.423 33.957 103.7-5.044 45.937-6.545 91.422-6.545 91.422 10.96-4.603 33.874-2.638 37.685 10.521 0 0 4.843-17.753 18.393-38.155 11.681-17.588 29.688-29.299 29.688-43.836 0-16.938-6.129-20.815-29.516-51.668z" fill="#425d61"/><path d="M327.069 45.973C260.134 56.216 230.801 38.751 201.375 0c11.649 59.191 38.855 117.052 61.26 165.759 24.602 31.553 52.605 57.737 79.052 64.5-25.167-49.147-14.618-184.286-14.618-184.286z" fill="url(#ar)"/><path d="M270.417 659.169c50.308 93.031 111.625 177.637 204.111 236.463 0 0 75.832 6.806 92.255-23.871 41.594-77.698-229.411-266.208-229.411-266.208-36.271 4.919-57.446 24.677-66.955 53.616z" fill="url(#as)"/><path d="M367.606 803.092 511.167 855.8c12.324-.255 26.164 0 26.164 0s-102.445-72.825-94.009-131.596c0 0 120.515 99.158 127.744 127.142 10.68 41.346-79.688 53.535-96.538 44.285-59.197-32.496-106.922-92.539-106.922-92.539z" fill="#0f1d44"/><path d="M275.857 646.078s49.221 100.343 120.696 139.341c50.465 27.535 77.286 56.68 77.286 56.68s-9.212-24.445-81.719-79.204c-44.946-33.945-104.579-133.557-104.579-133.557z" fill="#075189"/><path d="M964.782 1361.453s34.245-.089 61.858 8.48c12.757 3.959 26.906-1.466 18.533-4.388-25.513-8.906-74.133-18.533-74.133-18.533z" fill="#ff7265"/><path d="M710.468 1158.727s36.61 63.197 59.792 94.32c40.07 53.799 136.588 75.85 139.427 88.219 5.666 24.689 42.483 42.487 42.483 42.487 16.421 41.967 32.744 37.729 32.744 37.729s-18.341-52.637-15.968-58.571c3.548-8.871 87.886 6.991 89.001-4.258.176-1.774-54.985-16.517-59.549-17.033-51.868-5.862-62.808-16.678-76.292-24.13-11.045-6.104-94.075-68.599-119.228-89.421-6.358-5.263-46.351-89.106-46.351-89.106z" fill="#ffc1a4"/><path d="M723.294 1180.397c14.729 1.282 35.839-11.174 41.115-25.09l-7.882-16.343-46.059 19.763z" fill="#ff7265"/><path d="M613.656 1022.552c50.875 18.267 95.668 137.062 95.668 137.062 14.762 8.638 45.036-6.117 48.485-19.891 0 0-19.811-122.238-21.242-126.291-18.831-53.326-156.31-2.872-122.911 9.12z" fill="#092350"/><path d="M616.461 1023.667c35.004.352 70.23.649 89.272 4.999-4.511 5.528-21.889 9.077-70.008 7.901-4.733-4.546-10.936-8.877-19.264-12.9z" fill="#0f1d44"/><path d="M474.528 895.631c9.802 22.537 76.66 97.531 102.599 112.987 49.635 29.577 161.099 23.878 167.88 15.264 32.334-41.075-117.752-200.658-180.858-192.162-44.71 6.019-74.82 43.585-89.621 63.911z" fill="#092350"/><path d="M551.375 987.032s-25.664-17.225 93.685 6.471c27.44 5.448 41.882-8.809 38.957-20.162-2.893-11.231-41.93-48.544-93.79-81.613-27.051-11.404-52.009-24.524-79.06-35.928-15.606 8.591-29.229 22.998-36.639 39.831 17.12 28.08 41.038 58.07 76.847 91.401zm141.85 8.49s-4.047 20.225 4.688 28.144c12.486 11.32 46.242 2.34 46.242 2.34z" fill="#0f1d44"/><path d="m710.711 959.052 45.065 6.758-12.106 65.279c-17.705-10.574-34.861-18.421-50.739-19.911-3.143-17.993 8.112-43.045 17.78-52.126z" fill="#ff7265"/><path d="M777.608 960.976c-.149-3.14-.927-9.095-5.1-11.873-7.157-4.764-19.441.819-26.127 11.319-4.344 6.822-8.087 18.231-2.558 25.943 3.026 4.22 7.667 5.153 7.667 5.153-4.507 5.04-13.118 24.509-13.94 29.288-2.278 13.236 11.397 45.874 17.377 55.864 5.427 9.068 12.271 12.23 20.404 11.1 0 0 12.197-1.304 42.96-26.421 12.788 2.641 16.826 8.362 16.414-13.701 0 0 24.125-19.412 26.96-19.959 10.368-2 24.706-20.865 27.054-25.22 10.265-19.044 3.068-34.471-8.043-47.166-42.373-48.411-103.068 5.673-103.068 5.673z" fill="#ffc1a4"/><path d="M796.036 1062.162c1.539-.292-6.062-34.103-7.076-32.584-.511.765.328 11.813 2.814 21.23 1.569 5.946 3.504 11.497 4.262 11.354zm13.337-19.244c-1.799 1.195 1.338 10.297 7.043 16.688 2.259 2.531 6.187 4.897 11.702 5.565 5.97.723 7.061-4.732 7.036-8.829-.216-34.82 1.911-34.123 1.911-34.123 8.033 1.159 12.795 5.377 14.913 12.066l8.069-5.792s-15.577-13.843-21.662-11.907c-7.803 2.483-2.936 45.725-5.613 43.723-2.273-1.696-20.38-19.395-23.399-17.391zm-25.572-86.844c3.656 4.531 21.527 9.653 36.387 4.83 10.224-3.319 71.493 34.862 71.493 34.862s14.907-34.516-33.948-59.601c-33.913-17.414-73.932 19.909-73.932 19.909zm-13.803 1.194c.362.197-1.309 9.394-9.668 17.48-5.412 5.236 3.461-11.931-3.163-12.243-10.629-.501-5.656 19.864-6.526 22.107-.599 1.542-5.97-19.176 2.281-23.598 7.099-3.804 10.396 5.534 10.396 5.534 2.053-1.842 6.43-9.416 6.68-9.28z" fill="#ff7265"/><ellipse cx="798.837" cy="993.503" fill="#fffffe" rx="5.147" ry="6.975" transform="matrix(.8245 -.5659 .5659 .8245 -422.004 626.439)"/><g fill="#2f070f"><path d="M824.262 1001.075c-4.393 2.713-7.135 6.412-5.072 9.581 1.653 2.54 5.981 2.793 10.854.223 3.787-1.997 7.772-5.384 5.057-10.048-1.526-2.618-6.446-2.469-10.839.244zm17.896 30.472c-3.772 2.233-6.279 5.122-4.85 7.387 1.146 1.815 4.636 1.797 8.785-.351 3.225-1.67 7.832-4.161 4.874-7.734-1.369-1.654-5.037-1.535-8.809.698z"/><path d="M835.624 1005.438c-5.835-9.625-9.437-14.321-25.01-17.568-3.329-.694 11.907-3.809 22.532 8.946 7.301 8.765 5.812 14.122 2.478 8.622zm15.868 30.313c-.9-3.054-2.15-9.812-13.686-13.444-2.601-.819 7.752-.958 12.332 5.145 5.722 7.625 2.073 10.74 1.354 8.299zm8.124-3.53c-2.66-1.119-10.293-10.391-12.514-14.688-1.673-3.236 1.632-2.732 2.175-2.566 6.082 1.869 12.636 9.12 14.083 12.645 1.844 4.492-1.75 5.448-3.744 4.609zm-17.011-29.66c-3.1-.964-13.706-11.458-17.244-16.549-2.665-3.835.938-3.766 1.553-3.648 6.894 1.326 15.801 9.43 18.31 13.672 3.198 5.405-.295 7.247-2.619 6.525z"/></g><path d="M757.808 949.745s15.141-7.565 17.978 6.999c1.323 6.788-7.099 19.668-6.929 20.76s2.532 3.701 3.482 3.054c.949-.648 14.187-16.927 17.236-22.679 15.821 6.313 32.182 3.41 49.587-17.285 20.883 32.465 30.83 35.55 51.936 43.531 2.723 7.449 1.095 13.226-6.382 24.156 9.105-2.46 20.158-15.911 17.56-32.374-.978-6.193 11.4-16.854-33.166-54.781-42.522-40.769-58.596-25.718-58.596-25.718s6.356 1.461 6.305 4.538c-24.06-3.076-31.219 22.495-42.763 15.993-.64-.36.438 6.137 3.026 8.339.808 3.915-9.938 11.701-19.274 25.467z" fill="#4a1f23"/><path d="M768.857 977.504c.17 1.092 2.532 3.701 3.482 3.054.949-.648 14.187-16.927 17.236-22.679 12.306 4.911 24.939 4.24 38.136-6.037-13.671-1.72-33.86-14.162-37.899-16.196-11.177-5.628 19.528 4.033 25.824 5.975 21.438 6.613-38.352-17.263-38.553-17.344-7.332 7.587-13.589 16.243-19.274 25.468 0 0 15.14-7.565 17.978 6.999 1.322 6.789-7.1 19.669-6.93 20.76z" fill="#2f070f"/><path d="M850.458 1041.327s29.438 27.554 15.111 40.599c-14.327 13.046-48.324.517-55.641-7.688-1.774-1.989 7.156-2.496 8.57-7.037 2.741-8.804-16.573-28.776-27.789-24.168-8.951 3.677-13.175 26.657-3.227 32.464 3.801 2.219 8.375-1.102 10.015 1.375 7.28 10.995 47.108 31.435 71.678 14.08 27.747-19.599-12.803-56.931-12.803-56.931z" fill="url(#at)"/><path d="m764.21 940.005 44.632 48.275c-7.532 8.082-11.698 14.493-12.601 21.004-1.75 12.616 6.461 23.887 24.665 27.282 4.947.923 10.843.561 13.549 4.892.584.935.708 2.929.708 4.388 0 3.895-.28 12.313-.28 13.814 0 4.126 40.733-15.215 42.598-31.997 2.625-23.63-37.953-57.95-50.239-54.574-4.035 1.109-8.836 4.876-8.836 4.876l-47.772-46.43c-2.505 2.822-4.687 5.645-6.424 8.47z" fill="#3f4444"/><path d="M829.659 979.841c-3.926.447-28.137 20.023-28.318 30.194-.429 23.986 29.776 19.371 35.734 26.532 4.354 5.233-.049 17.519.274 19.79.652 4.585 37.883-18.379 36.57-28.881-2.391-19.121-36.026-48.573-44.26-47.635z" fill="url(#au)"/><path d="m803.565 1003.848 43.376-14.145 4.197 3.8-48.686 16.11z" fill="url(#av)"/><path d="m828.313 1007.192 27.647-9.051 3.913 4.26-32.826 10.287z" fill="url(#aw)"/><path d="M752.022 957.712c-23.633 25.196-63.217 26.464-88.413 2.831L463.028 772.408c-25.196-23.633-26.464-63.216-2.831-88.413 23.633-25.196 63.217-26.464 88.413-2.831L749.191 869.3c25.196 23.632 26.464 63.216 2.831 88.412z" fill="url(#ax)"/><path d="m749.191 869.3-25.106-23.548s52.323 61.168-7.479 99.929c-4.204 2.725-87.152-83.083-203.141-185.31-26.48-23.338-58.278 2.709-58.476 2.871a62.85 62.85 0 0 0 8.038 9.166l200.582 188.135c25.196 23.633 64.78 22.365 88.413-2.831 23.633-25.196 22.365-64.78-2.831-88.412z" fill="url(#ay)"/><path d="M484.761 679.069a5.512 5.512 0 0 1 7.796 0L725.545 904.26a5.512 5.512 0 1 1-7.796 7.796L484.761 686.865a5.514 5.514 0 0 1 0-7.796z" fill="url(#az)"/><path d="M574.135 876.623c5.331 7.04 25.56 24.735 42.605 39.992-3.085-41.05 48.027-85.222 86.927-90.014l-40.877-38.34c-45.431-1.537-88.736 55.571-88.655 88.362z" fill="url(#aA)"/><path d="M502.118 809.072c15.309 15.684 29.835 30.034 40.724 38.197-12.851-38.889 38.256-101.169 87.2-89.726l-40.541-38.479c-45.054-6.029-99.414 61.169-87.383 90.008z" fill="url(#aB)"/><path d="M476.248 864.691s-134.792-48.755-248.983-37.653c-24.424 2.375-36.635-23.947-57.667-30.529-10.898-3.411-19.503-5.519-26.119-11.533-11.194-10.176-28.96-53.922-40.351-52.064-2.162.353 5.751 20.178 5.751 20.178s-10.855-26.459-22.786-23.918c-1.366.291 4.517 16.373 4.517 16.373-1.303-1.104-7.851-14.165-13.618-12.469-4.991 1.468 35.569 79.706 45.794 89.731 19.674 19.291 55.089 25.765 98.711 32.386 141.524 21.479 243.556 61.422 243.556 61.422 12.313-15.724 17.108-32.835 11.195-51.924z" fill="#ffc1a4"/><path d="m129.824 801.937-32.101-67.243 11.156 18.396zm-19.289-15.265-28.454-51.978 8.53 10.851zm353.033 73.758c.764 17.945-3.249 34.88-15.067 50.165l16.552 6.02c11.806-16.271 17.655-33.308 11.194-51.924z" fill="#ff7265"/><path d="M460.149 916.42s167.777 82.466 205.984 67.111c31.23-12.551 11.368-39.521-10.631-59.254-42.069-37.734-182.064-61.679-182.064-61.679 6.082 26.348-6.734 48.865-13.289 53.822z" fill="#092350"/><path d="M655.502 924.277c-28.518-25.579-102.024-44.818-146.427-54.561.073.037 140.693 71.495 123.246 96.938-7.162 10.444-23.872 10.244-23.872 10.244l.01.004c25.19 7.404 46.739 11.023 57.674 6.629 31.23-12.551 11.368-39.521-10.631-59.254z" fill="#0067ba"/></svg></g></svg>